<?xml version="1.0" encoding="utf-8"?>
<!-- Generator: Adobe Illustrator 27.1.0, SVG Export Plug-In . SVG Version: 6.00 Build 0)  -->
<svg version="1.1" id="Layer_1" xmlns="http://www.w3.org/2000/svg" xmlns:xlink="http://www.w3.org/1999/xlink" x="0px" y="0px"
	 viewBox="0 0 1920 1080" style="enable-background:new 0 0 1920 1080;" xml:space="preserve">
<style type="text/css">
	.st0{fill:#FFFFFF;}
</style>
<g>
	<path class="st0" d="M841,624c0-56.33,0-112.67,0-169c79.33,0,158.67,0,238,0c0,56.33,0,112.67,0,169
		C999.67,624,920.33,624,841,624z M985.11,516.73c0,0,0.01,0,0.01,0c0-9.32,0.36-18.73-0.1-28.04
		c-0.76-15.05-14.18-26.93-29.46-23.26c-6.41,1.54-12.01,5.74-15.3,11.45c-4.12,7.13-3.24,15.28-3.25,23.2
		c0,10.13-0.01,20.26-0.01,30.39c0,8.08,1.45,17.47-2.74,24.79c-7.38,12.9-26.05,14.68-35.34,2.92c-5.4-6.84-4.85-15.1-4.85-23.34
		c0-10.11-0.01-20.21,0.01-30.32c0.01-8.21,1.46-17.71-2.02-25.42c-3.06-6.77-9.48-12.35-16.81-13.89
		c-14.13-2.97-27.59,7.36-29.08,21.49c-0.95,9.01-0.16,18.48-0.16,27.54c0,10.04-0.09,20.08,0.03,30.11
		c0.41,34.61,25.33,64.95,59.98,69.91c17.07,2.44,34.78-1.9,48.9-11.77c1.45-1.01,3.78-3.74,5.44-4.12
		c1.86-0.43,3.27,1.41,4.75,2.55c3.3,2.54,6.78,4.72,10.5,6.6c7.7,3.88,16.08,6.35,24.67,7.12c33.27,2.99,66.6-19.88,73.78-53.08
		c2.03-9.39,0.91-19.81,0.88-29.36c-0.03-9.53-0.12-19.07-0.1-28.6c0.01-5.13,0.06-10.25,0.18-15.38c0.09-3.7-0.13-7.31-1.71-10.71
		c-3.06-6.55-10.12-11.06-17.07-12.39c-15.5-2.97-27.81,9.81-28.28,24.7c-0.32,10.08,0.03,20.22,0.02,30.3
		c0,5.08-0.01,10.16-0.02,15.23c-0.01,4.63,0.4,9.52-0.6,14.07c-2.92,13.32-17.79,20.7-30.1,14.71c-6.92-3.36-11.26-10-11.99-17.6
		C984.32,536.76,985.11,526.56,985.11,516.73z"/>
	<path d="M985.11,516.73c0,9.83-0.79,20.04,0.16,29.83c0.73,7.59,5.08,14.23,11.99,17.6c12.31,5.98,27.18-1.39,30.1-14.71
		c1-4.55,0.6-9.45,0.6-14.07c0.01-5.08,0.02-10.16,0.02-15.23c0-10.08-0.34-20.22-0.02-30.3c0.47-14.89,12.77-27.67,28.28-24.7
		c6.95,1.33,14.02,5.84,17.07,12.39c1.59,3.4,1.8,7.01,1.71,10.71c-0.12,5.12-0.17,10.25-0.18,15.38c-0.02,9.53,0.07,19.07,0.1,28.6
		c0.03,9.56,1.15,19.97-0.88,29.36c-7.19,33.19-40.52,56.06-73.78,53.08c-8.59-0.77-16.97-3.24-24.67-7.12
		c-3.72-1.87-7.2-4.06-10.5-6.6c-1.48-1.14-2.88-2.98-4.75-2.55c-1.66,0.38-3.99,3.11-5.44,4.12c-14.11,9.87-31.82,14.22-48.9,11.77
		c-34.65-4.96-59.57-35.3-59.98-69.91c-0.12-10.03-0.03-20.08-0.03-30.11c0-9.05-0.79-18.53,0.16-27.54
		c1.49-14.14,14.96-24.47,29.08-21.49c7.32,1.54,13.75,7.11,16.81,13.89c3.48,7.71,2.04,17.21,2.02,25.42
		c-0.02,10.11-0.01,20.21-0.01,30.32c0,8.24-0.55,16.49,4.85,23.34c9.28,11.76,27.96,9.97,35.34-2.92
		c4.19-7.33,2.74-16.72,2.74-24.79c0-10.13,0-20.26,0.01-30.39c0-7.92-0.87-16.07,3.25-23.2c3.29-5.71,8.89-9.91,15.3-11.45
		c15.28-3.67,28.7,8.21,29.46,23.26c0.47,9.31,0.1,18.72,0.1,28.04C985.12,516.73,985.11,516.73,985.11,516.73z"/>
</g>
</svg>
