<?xml version="1.0" encoding="utf-8"?>
<!-- Generator: Adobe Illustrator 27.1.0, SVG Export Plug-In . SVG Version: 6.00 Build 0)  -->
<svg version="1.1" id="Layer_1" xmlns="http://www.w3.org/2000/svg" xmlns:xlink="http://www.w3.org/1999/xlink" x="0px" y="0px"
	 viewBox="0 0 1366 768" style="enable-background:new 0 0 1366 768;" xml:space="preserve">
<style type="text/css">
	.st0{display:none;fill:#FFFFFF;}
	.st1{display:none;}
</style>
<g>
	<path class="st0" d="M143,924c0-360,0-720,0-1080c360,0,720,0,1080,0c0,360,0,720,0,1080C863,924,503,924,143,924z M724.07,427.94
		c12.25,33.38,34.72,53.75,70.25,54.34c38.31,0.64,62.06-20.71,74.11-56.16c10.88,33.65,36.67,56.08,72.87,56.12
		c34.93,0.04,59.28-22.41,71.28-53.92c11.43,35.68,46.26,59.81,83.94,53.24c37.04-6.46,63.3-39.92,61.62-77.33
		c-1.65-36.76-30.32-67.64-67.16-71.15c-36.01-3.43-67.59,20.3-78.56,54c-11.14-30.75-34.75-52.31-68.29-53.88
		c-33.75-1.58-59.37,17.88-73.87,47.33c0-18.88,0.05-37.77,0.02-56.65c-0.02-13.25,1.72-28.46-10.92-36.87
		c-10.52-7.01-25.24-4.29-32.62,5.86c-8.85,12.16-3.74,29.64-5.33,43.59c-47.39-11.01-79.5,6.26-97.56,50.72
		c-11.74-32.78-37.53-54.4-73.2-53.98c-34.8,0.41-58.79,22.99-70.58,54.44c-11.79-33.11-37.78-55.03-73.83-54.45
		c-34.69,0.56-58.25,23.43-70.25,54.55c0-13.87,4.11-34.62-5.32-46.15c-8.56-10.47-25.1-11.57-34.96-2.37
		c-11.6,10.83-7.75,30.55-7.74,44.77c0.01,15.03,4.9,38.61-11.03,47.55c-12.43,6.98-27.07-0.19-30.99-13.3
		c-4.3-14.4-0.92-33.78-0.93-48.77c-0.01-13.1,0.43-27.48-13.26-34.19c-10.27-5.03-22.95-2.14-29.75,7.03
		c-8.8,11.86-4.97,31.2-4.97,45.03c0,12.32,3.61,30.77-6.18,40.55c-8.31,8.31-22.28,8.58-30.47,0.05
		c-9.59-9.99-6.36-27.44-6.35-39.9c0.02-19.77,3.29-64.54-31.11-54.14c-13.68,4.13-16.66,16.9-16.89,29.56
		c-0.31,16.81-0.57,33.93,0.36,50.72c3.2,57.97,68.2,89.56,114.57,51.83c43.23,34.2,102.63,11.43,114.37-41.51
		c10.56,33.48,35.19,56.93,71.36,57.73c35.97,0.8,61.41-21.64,73.43-54.34c14.26,31,36.22,55.15,72.45,54.51
		C687.56,481.77,712.33,459.92,724.07,427.94z M1154.18,331.96c0.38,0.04,0.76,0.08,1.14,0.11c0,4.01-0.28,6.03,2.12,9.17
		c3.08-5.71,1.73-12.68-0.77-18.32c-4.04,4.28-5.15,7.37-6.96,12.99c-1.22-3.73-2.78-14.75-8.45-11.68
		c-3.62,1.96-0.79,14.23,0.93,17.02c2.15-3.66,1.76-5.86,1.76-10.04c2.49,3.46,2.84,7.02,5.79,10.11
		C1152.38,338.37,1152.95,335.71,1154.18,331.96z M1121.02,325.18c3.07,0.9,4.98,1.46,7.08,2.07c0,4.96,0.8,9.2,1.89,14.06
		c3.87-1.65,2.08-10.73,2.08-14.2c2.48-0.59,4.16-0.99,6.04-1.44C1135.78,322.5,1126.72,322.04,1121.02,325.18z"/>
	<path d="M724.07,427.94c-11.74,31.99-36.51,53.83-71.48,54.45c-36.23,0.64-58.19-23.5-72.45-54.51
		c-12.02,32.7-37.46,55.13-73.43,54.34c-36.18-0.8-60.81-24.25-71.36-57.73c-11.74,52.95-71.14,75.71-114.37,41.51
		c-46.36,37.73-111.37,6.13-114.57-51.83c-0.93-16.79-0.67-33.91-0.36-50.72c0.23-12.66,3.21-25.43,16.89-29.56
		c34.39-10.4,31.13,34.37,31.11,54.14c-0.01,12.46-3.24,29.91,6.35,39.9c8.19,8.53,22.16,8.26,30.47-0.05
		c9.79-9.79,6.18-28.23,6.18-40.55c0-13.82-3.83-33.17,4.97-45.03c6.8-9.17,19.48-12.06,29.75-7.03
		c13.69,6.71,13.25,21.08,13.26,34.19c0.01,14.99-3.37,34.37,0.93,48.77c3.92,13.11,18.56,20.28,30.99,13.3
		c15.93-8.94,11.04-32.52,11.03-47.55c-0.01-14.22-3.86-33.94,7.74-44.77c9.86-9.21,26.4-8.11,34.96,2.37
		c9.43,11.53,5.32,32.29,5.32,46.15c12-31.12,35.56-53.99,70.25-54.55c36.05-0.59,62.04,21.33,73.83,54.45
		c11.79-31.45,35.78-54.04,70.58-54.44c35.66-0.42,61.45,21.2,73.2,53.98c18.06-44.46,50.17-61.73,97.56-50.72
		c1.59-13.95-3.52-31.43,5.33-43.59c7.38-10.14,22.1-12.86,32.62-5.86c12.63,8.41,10.9,23.62,10.92,36.87
		c0.03,18.88-0.02,37.77-0.02,56.65c14.51-29.46,40.12-48.91,73.87-47.33c33.54,1.57,57.15,23.12,68.29,53.88
		c10.98-33.7,42.55-57.43,78.56-54c36.83,3.51,65.51,34.38,67.16,71.15c1.68,37.41-24.58,70.87-61.62,77.33
		c-37.68,6.57-72.51-17.56-83.94-53.24c-12,31.51-36.35,53.96-71.28,53.92c-36.2-0.04-61.99-22.47-72.87-56.12
		c-12.05,35.45-35.8,56.8-74.11,56.16C758.79,481.69,736.32,461.32,724.07,427.94z M795.91,381.87
		c-14.1,0.04-25.51,11.55-25.59,25.82c-0.13,22.75,28.23,34.24,43.96,18.02C829.74,409.75,818.43,381.8,795.91,381.87z
		 M966.24,407.79c0.02-14.37-11.27-25.92-25.36-25.94c-22.71-0.04-34.1,28.22-18.21,44.15
		C938.57,441.96,966.22,430.23,966.24,407.79z M651.88,381.87c-14.15,0.08-25.34,11.54-25.37,25.95
		c-0.05,22.61,28.06,34.08,43.79,17.99C685.95,409.79,674.52,381.73,651.88,381.87z M1058.67,407.32
		c-0.22,14.27,10.85,25.94,25.02,26.37c22.75,0.69,34.27-28.18,18.76-44.01C1086.68,373.57,1059.02,384.9,1058.67,407.32z
		 M508.29,381.86c-14.16-0.11-25.51,11.2-25.7,25.6c-0.29,22.51,27.45,34.56,43.45,18.65C541.92,410.32,531,382.03,508.29,381.86z"
		/>
	<path class="st1" d="M1154.18,331.96c-1.23,3.74-1.81,6.41-4.44,9.37c-2.95-3.1-3.3-6.65-5.79-10.11c0,4.18,0.4,6.38-1.76,10.04
		c-1.72-2.79-4.55-15.06-0.93-17.02c5.67-3.07,7.23,7.95,8.45,11.68c1.81-5.62,2.92-8.71,6.96-12.99c2.5,5.64,3.84,12.61,0.77,18.32
		c-2.4-3.14-2.12-5.16-2.12-9.17C1154.94,332.04,1154.56,332,1154.18,331.96z"/>
	<path class="st1" d="M1121.02,325.18c5.7-3.13,14.76-2.68,17.09,0.48c-1.88,0.45-3.56,0.85-6.04,1.44c0,3.47,1.79,12.56-2.08,14.2
		c-1.09-4.86-1.89-9.1-1.89-14.06C1126.01,326.63,1124.09,326.07,1121.02,325.18z"/>
	<path class="st0" d="M795.91,381.87c22.52-0.07,33.83,27.88,18.36,43.84c-15.72,16.22-44.09,4.73-43.96-18.02
		C770.4,393.42,781.81,381.91,795.91,381.87z"/>
	<path class="st0" d="M966.24,407.79c-0.02,22.44-27.67,34.16-43.57,18.21c-15.89-15.93-4.5-44.19,18.21-44.15
		C954.97,381.88,966.26,393.42,966.24,407.79z"/>
	<path class="st0" d="M651.88,381.87c22.64-0.13,34.07,27.92,18.41,43.94c-15.73,16.09-43.84,4.63-43.79-17.99
		C626.54,393.4,637.74,381.95,651.88,381.87z"/>
	<path class="st0" d="M1058.67,407.32c0.35-22.42,28.01-33.74,43.78-17.64c15.51,15.84,3.99,44.7-18.76,44.01
		C1069.52,433.26,1058.45,421.59,1058.67,407.32z"/>
	<path class="st0" d="M508.29,381.86c22.71,0.17,33.63,28.46,17.75,44.25c-16,15.91-43.74,3.86-43.45-18.65
		C482.78,393.06,494.13,381.75,508.29,381.86z"/>
</g>
</svg>
